HIERARCHY
ROOT Hips
{
	OFFSET 0.00000 0.00000 0.00000
	CHANNELS 6 Xposition Yposition Zposition Zrotation Yrotation Xrotation 
	JOINT LHipJoint
	{
		OFFSET 0 0 0
		CHANNELS 3 Zrotation Yrotation Xrotation
		JOINT LeftHip
		{
			OFFSET 1.33213 -1.58186 0.78596
			CHANNELS 3 Zrotation Yrotation Xrotation
			JOINT LeftKnee
			{
				OFFSET 2.29717 -6.31144 0.00000
				CHANNELS 3 Zrotation Yrotation Xrotation
				JOINT LeftAnkle
				{
					OFFSET 2.38430 -6.55082 0.00000
					CHANNELS 3 Zrotation Yrotation Xrotation
					JOINT LeftToe
					{
						OFFSET 0.11863 -0.32594 1.77568
						CHANNELS 3 Zrotation Yrotation Xrotation
						End Site
						{
							OFFSET 0.00000 -0.00000 0.91633
						}
					}
				}
			}
		}
	}
	JOINT RHipJoint
	{
		OFFSET 0 0 0
		CHANNELS 3 Zrotation Yrotation Xrotation
		JOINT RightHip
		{
			OFFSET -1.41575 -1.58186 0.78596
			CHANNELS 3 Zrotation Yrotation Xrotation
			JOINT RightKnee
			{
				OFFSET -2.42012 -6.64922 0.00000
				CHANNELS 3 Zrotation Yrotation Xrotation
				JOINT RightAnkle
				{
					OFFSET -2.47254 -6.79327 0.00000
					CHANNELS 3 Zrotation Yrotation Xrotation
					JOINT RightToe
					{
						OFFSET -0.15219 -0.41813 1.93430
						CHANNELS 3 Zrotation Yrotation Xrotation
						End Site
						{
							OFFSET -0.00000 -0.00000 0.99984
						}
					}
				}
			}
		}
	}
	JOINT lowerback
	{
		OFFSET 0 0 0
		CHANNELS 3 Zrotation Yrotation Xrotation
		JOINT Chest
		{
			OFFSET -0.04717 2.09389 -0.14516
			CHANNELS 3 Zrotation Yrotation Xrotation
			JOINT Chest2
			{
				OFFSET 0.02825 2.09433 -0.11325
				CHANNELS 3 Zrotation Yrotation Xrotation
				JOINT lowerneck
				{
					OFFSET 0 0 0
					CHANNELS 3 Zrotation Yrotation Xrotation
					JOINT Neck
					{
						OFFSET -0.01210 1.39029 0.12448
						CHANNELS 3 Zrotation Yrotation Xrotation
						JOINT Head
						{
							OFFSET 0.09492 1.38365 0.14559
							CHANNELS 3 Zrotation Yrotation Xrotation
							End Site
							{
								OFFSET 0.03402 1.40343 0.03708
							}
						}
					}
				}
				JOINT LeftCollar
				{
					OFFSET 0 0 0
					CHANNELS 3 Zrotation Yrotation Xrotation
					JOINT LeftShoulder
					{
						OFFSET 2.83352 1.10671 -0.20481
CHANNELS 3 Zrotation Xrotation Yrotation
						JOINT LeftElbow
						{
OFFSET 0 -4.771950 -0.000000
CHANNELS 3 Zrotation Xrotation Yrotation
							JOINT LeftWrist
							{
OFFSET 0 -2.984440 0.000000
CHANNELS 3 Zrotation Xrotation Yrotation
								JOINT lhand
								{
									OFFSET 0 0 0
CHANNELS 3 Zrotation Xrotation Yrotation
									JOINT LFingers
									{
OFFSET 0 -0.992280 0.000000
CHANNELS 3 Zrotation Xrotation Yrotation
										End Site
										{
OFFSET 0 -0.800010 0.000000
										}
									}
								}
								JOINT LThumb
								{
OFFSET 0 0.000000 0.000000
CHANNELS 3 Zrotation Xrotation Yrotation
									End Site
									{
OFFSET 0 -0.812220 0.812220
									}
								}
							}
						}
					}
				}
				JOINT RightCollar
				{
					OFFSET 0 0 0
					CHANNELS 3 Zrotation Yrotation Xrotation
					JOINT RightShoulder
					{
						OFFSET -3.23760 1.11106 0.06723
CHANNELS 3 Zrotation Xrotation Yrotation
						JOINT RightElbow
						{
OFFSET 0 -4.620520 0.000000
CHANNELS 3 Zrotation Xrotation Yrotation
							JOINT RightWrist
							{
OFFSET 0 -2.953320 0.000000
CHANNELS 3 Zrotation Xrotation Yrotation
								JOINT rhand
								{
									OFFSET 0 0 0
CHANNELS 3 Zrotation Xrotation Yrotation
									JOINT RFingers
									{
OFFSET 0 -0.990960 0.000000
CHANNELS 3 Zrotation Xrotation Yrotation
										End Site
										{
OFFSET 0 -0.798930 0.000000
										}
									}
								}
								JOINT RThumb
								{
OFFSET 0 0.000000 0.000000
CHANNELS 3 Zrotation Xrotation Yrotation
									End Site
									{
OFFSET 0 -0.811130 0.811130
									}
								}
							}
						}
					}
				}
			}
		}
	}
}
MOTION
Frames: 9
Frame Time: 0.008333333333333333
-3.530759 17.482844 20.799240 -120.172050 -73.654247 -227.987573 0.000000 0.000000 0.000000 8.640637 -22.685122 -10.560194 1.764655 8.357699 23.805929 0.244663 17.869503 14.726603 0.798403 -5.703025 -15.925210 0.000000 0.000000 0.000000 13.379941 -16.230004 -41.529058 -5.367454 -13.785638 42.386204 -0.344495 -16.204531 14.639359 -0.054202 -1.496961 4.117300 -8.840913 -2.744604 0.130973 0.674071 -3.553613 5.928809 5.431082 -2.325304 6.770073 -4.778902 -10.282983 -0.223176 17.048619 -15.762363 8.108737 5.204468 -7.631360 4.208699 0.000000 0.000000 0.000000 16.476800 7.796576 -14.489087 27.534268 -38.683435 9.831428 12.872166 13.638988 -9.576949 0.000000 0.000000 0.000000 -7.125000 0.000000 0.000000 -12.255765 39.508535 -1.688065 0.000000 0.000000 0.000000 -7.170778 19.796553 16.821027 -18.210033 -28.425236 -4.648726 19.578775 23.293920 4.187407 0.000000 0.000000 0.000000 7.125000 0.000000 0.000000 35.502440 32.089747 13.657382
-3.519080 17.455795 20.594374 -121.926295 -74.428221 -225.831810 0.000000 0.000000 0.000000 8.633538 -22.435492 -11.240231 1.743968 8.311161 23.663099 0.301566 18.293920 15.447264 0.724433 -5.438387 -15.163221 0.000000 0.000000 0.000000 14.184153 -16.270837 -40.785530 -4.887183 -13.254615 40.331068 -0.343403 -16.603592 14.846497 -0.008835 -0.605373 1.663575 -8.534903 -2.893926 -0.021597 0.810747 -3.754403 5.859838 5.383825 -2.408922 6.801619 -4.904436 -10.431054 0.036624 17.066516 -15.865556 7.604851 5.245077 -7.714023 4.036622 0.000000 0.000000 0.000000 15.334375 7.577092 -14.419152 28.847235 -39.882017 10.663567 13.291150 13.639295 -9.300390 0.000000 0.000000 0.000000 -7.125000 0.000000 0.000000 -11.841158 39.264388 -1.701440 0.000000 0.000000 0.000000 -8.088203 19.520267 16.671203 -18.194099 -28.405062 -4.641186 19.230549 23.704058 4.042342 0.000000 0.000000 0.000000 7.125000 0.000000 0.000000 35.226583 32.000495 13.598641
-3.505900 17.421075 20.388454 -124.931421 -75.336006 -222.458295 0.000000 0.000000 0.000000 8.291624 -22.290276 -11.887968 1.733999 8.288471 23.593693 0.380534 18.636914 16.268526 0.767691 -5.594434 -15.612212 0.000000 0.000000 0.000000 14.548770 -15.963678 -39.944176 -4.456258 -12.742744 38.414949 -0.244892 -17.783413 14.687082 -0.003546 -0.382262 1.050366 -8.486729 -3.188407 -0.138768 0.901833 -4.142042 5.689565 5.421332 -2.589459 6.753089 -5.032434 -10.286692 0.526406 17.132745 -15.596127 7.156635 5.344942 -7.624861 3.802594 0.000000 0.000000 0.000000 14.095920 7.761850 -14.161721 30.573332 -41.374899 11.788534 13.585104 13.114280 -9.303095 0.000000 0.000000 0.000000 -7.125000 0.000000 0.000000 -11.591341 39.289799 -1.656979 0.000000 0.000000 0.000000 -9.538032 19.146314 17.339274 -18.199759 -28.412245 -4.643900 18.651557 23.919093 3.987350 0.000000 0.000000 0.000000 7.125000 0.000000 0.000000 34.834181 32.012141 13.366796
-3.492471 17.366779 20.177395 -129.742487 -76.402538 -217.431157 0.000000 0.000000 0.000000 7.517208 -21.874639 -12.518549 1.727344 8.273471 23.547820 0.510604 18.762904 17.330541 0.795557 -5.687313 -15.881324 0.000000 0.000000 0.000000 14.362252 -15.439025 -38.968197 -4.109160 -12.303200 36.814711 -0.010302 -19.711054 13.975907 -0.003146 -0.360369 0.990301 -8.583689 -3.452422 -0.280015 0.791456 -4.472778 5.562807 5.325843 -2.746905 6.752089 -5.185230 -10.164097 1.206210 17.297193 -15.376209 6.704275 5.485807 -7.570121 3.550901 0.000000 0.000000 0.000000 13.044064 7.908316 -13.826443 32.495998 -42.932582 13.079684 13.735251 12.341923 -9.198689 0.000000 0.000000 0.000000 -7.125000 0.000000 0.000000 -11.442630 39.196367 -1.661587 0.000000 0.000000 0.000000 -11.171351 18.511381 18.398598 -18.173002 -28.378103 -4.631169 18.107873 23.685022 4.210854 0.000000 0.000000 0.000000 7.125000 0.000000 0.000000 34.561963 32.260641 12.955376
-3.478497 17.322587 19.955638 -134.632095 -77.181786 -212.482013 0.000000 0.000000 0.000000 7.071381 -21.376703 -12.933823 1.734528 8.289636 23.597358 0.584312 18.924887 17.956193 0.622658 -5.048606 -14.047458 0.000000 0.000000 0.000000 14.416576 -14.723613 -37.689887 -3.842173 -11.946717 35.544645 0.430396 -21.645329 11.668509 -0.002814 -0.278685 0.765678 -8.212997 -3.575190 -0.382168 0.764550 -4.640750 5.578441 5.068879 -2.811732 6.815419 -5.539726 -10.254264 1.542580 17.344828 -15.433785 6.358305 5.577591 -7.628397 3.428597 0.000000 0.000000 0.000000 11.986856 7.810277 -13.753076 34.520798 -44.456922 14.479991 13.876993 11.802159 -8.922138 0.000000 0.000000 0.000000 -7.125000 0.000000 0.000000 -11.267229 38.928768 -1.710770 0.000000 0.000000 0.000000 -12.663033 17.633858 18.905812 -18.175864 -28.381772 -4.632562 17.876002 23.838812 4.210595 0.000000 0.000000 0.000000 7.125000 0.000000 0.000000 34.410377 32.283234 12.850318
-3.460621 17.250606 19.734254 -141.327573 -78.035664 -205.709793 0.000000 0.000000 0.000000 6.344452 -20.790200 -13.584108 1.753135 8.331623 23.726051 0.778845 18.508488 19.149205 0.610027 -4.991305 -13.885440 0.000000 0.000000 0.000000 14.252443 -14.430196 -36.688077 -3.656816 -11.688728 34.640092 0.758340 -20.969991 7.830377 -0.011692 0.434071 -1.193592 -7.861241 -3.685383 -0.486473 0.699630 -4.789972 5.567486 4.784741 -2.864345 6.844689 -5.404554 -10.483904 1.671171 16.645192 -15.549653 5.851184 5.356232 -7.703027 3.204992 0.000000 0.000000 0.000000 10.912435 7.795326 -13.910498 36.841586 -46.071263 16.129704 14.137441 11.359322 -8.872399 0.000000 0.000000 0.000000 -7.125000 0.000000 0.000000 -11.036114 38.898118 -1.683456 0.000000 0.000000 0.000000 -14.032275 16.735816 19.018953 -18.302189 -28.542123 -4.692837 17.791190 24.152531 4.015340 0.000000 0.000000 0.000000 7.125000 0.000000 0.000000 34.284840 32.121684 12.950821
-3.437546 17.170553 19.503961 -151.641599 -78.775862 -195.336482 0.000000 0.000000 0.000000 5.110100 -19.800652 -14.439725 1.775070 8.380976 23.877295 1.083623 17.742847 20.916638 0.632957 -5.041018 -14.035417 0.000000 0.000000 0.000000 13.334712 -13.738293 -35.681763 -3.536012 -11.515799 34.039977 0.576579 -16.743599 4.527601 -0.051763 1.465030 -4.029406 -7.940396 -3.794826 -0.635602 0.478346 -4.910918 5.492012 4.577071 -2.917508 6.853737 -5.742439 -10.639043 1.925443 16.283989 -15.618735 5.368359 5.320645 -7.762910 3.024954 0.000000 0.000000 0.000000 9.983561 7.926189 -13.928092 39.252739 -47.608960 17.888986 14.492447 11.037267 -9.067285 0.000000 0.000000 0.000000 -7.125000 0.000000 0.000000 -10.771664 39.121677 -1.581799 0.000000 0.000000 0.000000 -15.403384 15.873956 19.410431 -18.550481 -28.856013 -4.812106 17.564047 23.831897 4.002289 0.000000 0.000000 0.000000 7.125000 0.000000 0.000000 34.131024 32.132216 12.857607
-3.404983 17.104923 19.279320 -163.246758 -78.998507 -183.869579 0.000000 0.000000 0.000000 3.840465 -18.341724 -15.194122 1.781458 8.395246 23.921072 1.292123 17.965665 22.358194 0.330566 -3.673047 -10.160848 0.000000 0.000000 0.000000 11.855495 -12.367560 -34.354222 -3.474092 -11.425581 33.729009 0.588603 -14.461008 -0.167023 -0.070629 1.708400 -4.700609 -7.764300 -3.887474 -0.538446 0.123270 -5.037023 5.421303 4.105298 -2.951922 6.684786 -5.986394 -10.669203 2.503997 15.911790 -15.484240 4.567155 5.311484 -7.746544 2.666273 0.000000 0.000000 0.000000 9.241280 8.176836 -13.703797 41.703019 -49.032870 19.720261 14.708349 10.939718 -9.170071 0.000000 0.000000 0.000000 -7.125000 0.000000 0.000000 -10.607202 39.242098 -1.524996 0.000000 0.000000 0.000000 -16.561095 14.921606 19.841879 -18.819183 -29.193099 -4.942514 17.195252 23.462816 4.079263 0.000000 0.000000 0.000000 7.125000 0.000000 0.000000 33.915139 32.234277 12.638570
-3.366554 17.054760 19.062189 -174.633224 -78.618303 -172.813539 0.000000 0.000000 0.000000 2.467017 -15.986321 -15.972074 1.785594 8.404490 23.949496 1.545583 18.139029 23.988773 0.211212 -2.952205 -8.146099 0.000000 0.000000 0.000000 10.069669 -10.686075 -32.892475 -3.439193 -11.374116 33.552352 0.477346 -12.219940 -4.579634 -0.126154 2.247368 -6.191564 -7.388282 -3.978218 -0.170853 -0.294208 -5.190623 5.310555 3.482308 -2.983275 6.291025 -6.151152 -10.640856 3.200127 15.308984 -15.292761 3.935042 5.230373 -7.696877 2.308871 0.000000 0.000000 0.000000 8.587529 8.737295 -13.277465 44.379661 -50.444834 21.763908 14.907081 10.951028 -9.149153 0.000000 0.000000 0.000000 -7.125000 0.000000 0.000000 -10.433572 39.236102 -1.500739 0.000000 0.000000 0.000000 -17.380819 13.858877 19.937310 -19.087985 -29.527582 -5.074328 16.654894 23.760713 4.046063 0.000000 0.000000 0.000000 7.125000 0.000000 0.000000 33.544648 32.255633 12.423505
